<svg width="157" height="157" viewBox="0 0 157 157" fill="none" xmlns="http://www.w3.org/2000/svg">
<path d="M125.108 93.2188C115.334 93.2281 105.763 96.0145 97.5115 101.253C89.2596 106.492 82.6661 113.968 78.499 122.81C74.332 113.968 67.7385 106.492 59.4866 101.253C51.2347 96.0145 41.6641 93.2281 31.8896 93.2188H4.90527V98.125C4.90527 126.531 28.0149 149.641 56.4209 149.641H100.577C128.983 149.641 152.093 126.531 152.093 98.125V93.2188H125.108ZM56.4209 139.828C35.0845 139.828 17.4395 123.724 15.0048 103.031H31.8896C53.226 103.031 70.871 119.136 73.3058 139.828H56.4209ZM100.577 139.828H83.6923C86.127 119.136 103.772 103.031 125.108 103.031H141.993C139.559 123.724 121.914 139.828 100.577 139.828Z" fill="white"/>
<path d="M51.8897 80.5769C52.8176 86.0943 55.4498 91.1827 59.4168 95.128L60.854 96.5649H62.8861C68.4809 96.5805 73.9403 94.8438 78.4978 91.5985C83.0552 94.8442 88.5145 96.5813 94.1095 96.5661H96.1416L97.5788 95.1292C101.546 91.1839 104.178 86.0955 105.106 80.5782C110.623 79.6502 115.712 77.0181 119.657 73.0511L121.094 71.6138V69.5817C121.11 63.9865 119.373 58.5267 116.127 53.9688C119.373 49.4114 121.11 43.9521 121.095 38.3571V36.325L119.658 34.8878C115.713 30.9208 110.625 28.2886 105.107 27.3607C104.179 21.8433 101.547 16.755 97.58 12.8097L96.1428 11.3728H94.1107C88.5154 11.3569 83.0557 13.0937 78.4978 16.3391C73.9404 13.0934 68.4811 11.3563 62.8861 11.3715H60.854L59.4168 12.8084C55.4498 16.7537 52.8176 21.8421 51.8897 27.3595C46.3723 28.2874 41.2839 30.9196 37.3386 34.8866L35.9017 36.3238V38.3559C35.8859 43.9512 37.6226 49.4109 40.8681 53.9688C37.6224 58.5262 35.8853 63.9855 35.9005 69.5805V71.6126L37.3374 73.0498C41.283 77.0171 46.3718 79.6492 51.8897 80.5769V80.5769ZM50.744 50.4998C48.023 47.7951 46.2943 44.2513 45.8378 40.442C48.8541 38.0702 52.5826 36.7859 56.4197 36.7969H61.3259V31.8907C61.3148 28.054 62.5988 24.3259 64.97 21.3097C68.7794 21.7663 72.3232 23.4949 75.0278 26.216L78.4978 29.6829L81.9668 26.2139C84.6715 23.4928 88.2153 21.7641 92.0246 21.3076C94.3966 24.3242 95.6809 28.0532 95.6697 31.8907V36.7969H100.576C104.413 36.7859 108.141 38.0698 111.157 40.4411C110.7 44.2504 108.972 47.7942 106.251 50.4989L102.784 53.9688L106.253 57.4381C108.974 60.1428 110.703 63.6866 111.159 67.496C108.143 69.8679 104.413 71.1521 100.576 71.1407H95.6697V76.0469C95.6807 79.8836 94.3967 83.6117 92.0255 86.6279C88.2162 86.1713 84.6724 84.4427 81.9677 81.7216L78.4978 78.2547L75.0284 81.7229C72.3238 84.4439 68.78 86.1726 64.9706 86.6291C62.5989 83.6127 61.3147 79.8841 61.3259 76.0469V71.1407H56.4197C52.583 71.1518 48.8549 69.8678 45.8387 67.4966C46.2952 63.6872 48.0239 60.1434 50.745 57.4388L54.2118 53.9688L50.744 50.4998Z" fill="white"/>
</svg>
