<svg width="124" height="124" viewBox="0 0 124 124" fill="#fff" xmlns="http://www.w3.org/2000/svg">
<g clip-path="url(#clip0)">
<path fill-rule="evenodd" clip-rule="evenodd" d="M61.7689 0C27.7792 0 0.230469 27.5538 0.230469 61.5385C0.230469 95.5231 27.7792 123.077 61.7689 123.077C95.7535 123.077 123.307 95.5231 123.307 61.5385C123.307 27.5538 95.7535 0 61.7689 0ZM62.4869 97.5282C42.651 97.5282 26.5894 81.4256 26.5894 61.5385C26.5894 41.6513 42.651 25.5487 62.4869 25.5487C72.1792 25.5487 80.2817 29.1231 86.4971 34.9282L76.3741 45.0718V45.0513C72.6048 41.4513 67.8253 39.6051 62.4869 39.6051C50.6407 39.6051 41.0151 49.6359 41.0151 61.5179C41.0151 73.3897 50.6407 83.4513 62.4869 83.4513C73.2356 83.4513 80.5484 77.2872 82.0561 68.8256H62.4869V54.7897H96.2561C96.7074 57.2 96.9484 59.7128 96.9484 62.3487C96.9484 82.9128 83.2202 97.5282 62.4869 97.5282Z" fill="white"/>
</g>
<defs>
<clipPath id="clip0">
<rect width="123.077" height="123.077" fill="white" transform="translate(0.230469)"/>
</clipPath>
</defs>
</svg>
